HIERARCHY
ROOT hip
{
	OFFSET 0.000000 0.000000 0.000000 
	CHANNELS 6 Xposition Yposition Zposition Xrotation Zrotation Yrotation
	JOINT abdomen
	{
		OFFSET 0.000000 3.402643 0.000000 
		CHANNELS 3 Xrotation Zrotation Yrotation
		JOINT chest
		{
			OFFSET 0.000000 8.438565 -0.680529 
			CHANNELS 3 Xrotation Zrotation Yrotation
			JOINT neck
			{
				OFFSET 0.000000 10.207942 -0.272212 
				CHANNELS 3 Xrotation Zrotation Yrotation
				JOINT head
				{
					OFFSET 0.000000 3.130431 0.000000 
					CHANNELS 3 Xrotation Zrotation Yrotation
					End Site
					{
						OFFSET 0.000000 3.130435 0.000000 
					}
				}
			}
			JOINT lCollar
			{
				OFFSET 3.470700 6.669187 -0.816635 
				CHANNELS 3 Yrotation Zrotation Xrotation
				JOINT lShldr
				{
					OFFSET 3.198488 0.000000 0.000000 
					CHANNELS 3 Zrotation Yrotation Xrotation
					JOINT lForeArm
					{
						OFFSET 10.139888 0.000000 0.000000 
						CHANNELS 3 Yrotation Zrotation Xrotation
						JOINT lHand
						{
							OFFSET 8.370511 0.000000 0.000000 
							CHANNELS 3 Zrotation Yrotation Xrotation
							End Site
							{
								OFFSET 4.083176 0.000000 0.000000 
							}
						}
					}
				}
			}
			JOINT rCollar
			{
				OFFSET -3.470700 6.669187 -0.816635 
				CHANNELS 3 Yrotation Zrotation Xrotation
				JOINT rShldr
				{
					OFFSET -3.198488 0.000000 0.000000 
					CHANNELS 3 Zrotation Yrotation Xrotation
					JOINT rForeArm
					{
						OFFSET -10.139888 0.000000 0.000000 
						CHANNELS 3 Yrotation Zrotation Xrotation
						JOINT rHand
						{
							OFFSET -8.370511 0.000000 0.000000 
							CHANNELS 3 Zrotation Yrotation Xrotation
							End Site
							{
								OFFSET -4.083176 0.000000 0.000000 
							}
						}
					}
				}
			}
		}
	}
	JOINT lThigh
	{
		OFFSET 5.308129 -1.633274 1.361059 
		CHANNELS 3 Xrotation Zrotation Yrotation
		JOINT lShin
		{
			OFFSET -2.041588 -20.007561 0.000000 
			CHANNELS 3 Xrotation Zrotation Yrotation
			JOINT lFoot
			{
				OFFSET 0.000000 -19.190928 -1.224953 
				CHANNELS 3 Xrotation Yrotation Zrotation
				End Site
				{
					OFFSET 0.000000 -2.449906 4.627600 
				}
			}
		}
	}
	JOINT rThigh
	{
		OFFSET -5.308129 -1.633274 1.361059 
		CHANNELS 3 Xrotation Zrotation Yrotation
		JOINT rShin
		{
			OFFSET 2.041588 -20.007561 0.000000 
			CHANNELS 3 Xrotation Zrotation Yrotation
			JOINT rFoot
			{
				OFFSET 0.000000 -19.190928 -1.224953 
				CHANNELS 3 Xrotation Yrotation Zrotation
				End Site
				{
					OFFSET 0.000000 -2.449906 4.627600 
				}
			}
		}
	}
}
MOTION
Frames: 16
Frame Time: 0.033333
34.920559 56.887280 22.639534 7.978516 0.234375 43.613281 20.556639 0.000000 0.000000 -16.484377 -4.111328 0.644531 -9.118133 -5.404784 -11.264014 -8.574220 -2.226563 -12.441409 2.000000 -2.000000 0.000000 -30.966797 -16.787109 -5.888671 -10.290137 -1.756284 0.009793 5.609237 -20.655680 24.601173 -2.000000 2.000000 0.000000 52.421875 -9.541016 -1.485992 55.995300 1.849218 -0.073023 -18.092245 15.898946 22.922205 -40.851269 3.036188 -0.994510 75.958084 -0.650487 9.250566 1.753617 -0.293230 12.723971 -20.815361 -8.181343 -6.591890 21.047075 3.746847 -10.385479 -0.788774 -0.477057 -13.348270 
35.145435 57.215725 22.660301 9.472656 -0.859375 41.972656 20.556639 0.000000 0.000000 -18.017580 -4.306641 0.742188 -9.251610 -5.134820 -10.641017 -9.541018 -1.679688 -11.933595 2.000000 -2.000000 0.000000 -34.833984 -12.207030 -3.623047 -12.223959 -1.766610 0.000626 6.116854 -18.866014 22.619759 -2.000000 2.000000 0.000000 53.242188 -7.626953 0.906909 54.139828 1.849219 -0.073023 -18.960331 15.190165 20.872557 -43.370449 3.348642 -1.831856 71.124275 -1.011472 8.064971 0.640506 -0.516451 10.030058 -23.912487 -8.075027 -5.800122 23.276997 3.693999 -9.694103 -2.009648 -0.441931 -14.872303 
35.582993 57.418709 22.778717 9.169923 0.205078 40.957062 20.556639 0.000000 0.000000 -16.562500 -4.482423 0.703125 -9.198679 -5.042394 -10.417871 -11.523438 -2.294922 -11.445313 2.000000 -2.000000 0.000000 -39.414063 -8.535155 -1.279297 -14.225649 -1.775781 0.010950 6.979268 -18.450949 19.893017 -2.000000 2.000000 0.000000 54.863281 -6.142579 2.069267 52.039993 1.838893 -0.063855 -19.674259 16.222141 19.343084 -42.076626 2.977952 -2.431579 65.126961 -1.470114 5.734132 0.696910 -0.555368 8.816411 -24.236927 -8.876573 -6.380354 26.530445 3.563589 -9.314486 -3.514468 -0.419899 -16.492138 
35.987576 57.494595 22.862906 8.886718 1.015625 39.179691 20.556639 0.000000 0.000000 -15.312500 -4.853516 0.703125 -9.192518 -4.812666 -9.868007 -13.408204 -1.484375 -11.171876 2.000000 -2.000000 0.000000 -43.476563 -3.876953 0.712231 -17.262985 -1.786107 0.001783 7.586542 -17.236078 17.847134 -2.000000 2.000000 0.000000 55.996094 -3.378906 3.564453 48.748734 1.838315 -0.054109 -18.617638 16.426973 17.859745 -40.652924 3.192861 -2.754745 59.049965 -1.908793 3.002450 0.647887 -0.598242 7.270186 -24.744524 -9.257160 -6.579450 29.032692 3.495957 -7.665914 -4.067980 -0.401186 -17.023071 
36.385754 57.382217 23.033674 8.388672 0.869141 37.275387 20.556639 0.000000 0.000000 -14.941406 -4.345704 0.604729 -9.215177 -4.519086 -9.289075 -14.833986 -1.298828 -10.546877 2.000000 -2.000000 0.000000 -47.958984 1.210938 1.523646 -20.837187 -1.795856 0.002362 8.330812 -15.990508 15.956618 -2.000000 2.000000 0.000000 57.626953 -0.644531 5.244031 45.477272 1.828567 -0.054686 -18.077703 16.182444 16.758488 -39.601093 4.452169 -2.985843 53.510700 -2.271231 0.619805 0.861644 -0.607850 6.387995 -25.715513 -8.610373 -6.601759 31.744930 3.378156 -6.367209 -5.165260 -0.324062 -18.358223 
36.885338 57.131409 23.176382 8.056641 0.634766 35.439564 20.556639 0.000000 0.000000 -14.746093 -3.515625 0.487682 -9.262632 -4.071452 -8.406741 -16.230471 -1.210938 -9.521485 2.000000 -2.000000 0.000000 -52.802738 6.093750 1.845703 -24.245859 -1.806759 -0.016550 9.603032 -15.296526 14.339451 -2.000000 2.000000 0.000000 58.935551 1.552734 6.601827 42.156731 1.818241 -0.045518 -16.907064 17.823215 16.273499 -38.537342 5.506912 -2.853873 48.515713 -2.590984 -1.771648 1.617110 -0.534151 5.073165 -26.752796 -8.152468 -6.701434 34.629761 3.249953 -6.103240 -6.052914 -0.275889 -18.224365 
37.282509 56.716381 23.149574 9.492188 -0.195313 34.433590 20.556639 0.000000 0.000000 -16.298828 -3.261719 0.487726 -9.329157 -4.094114 -8.492200 -17.382814 -1.386719 -9.550782 2.000000 -2.000000 0.000000 -57.050781 9.511720 2.403959 -27.351305 -1.816508 -0.015972 10.856619 -13.966287 12.432454 -2.000000 2.000000 0.000000 60.292969 2.128906 6.933959 40.525871 1.818241 -0.045518 -16.220087 17.716780 16.531210 -39.562397 5.575023 -3.433744 44.026928 -2.876699 -4.711788 3.968563 -0.537529 3.817177 -30.047728 -8.319953 -6.376637 37.690552 3.094711 -6.666304 -6.507897 -0.252243 -17.381821 
37.767628 56.088802 23.430336 8.554688 0.292969 31.914110 20.556639 0.000000 0.000000 -15.449219 -3.115234 0.438922 -9.348110 -3.638485 -7.492835 -17.910158 -1.337891 -8.388706 2.000000 -2.000000 0.000000 -61.767578 13.691406 0.673828 -30.388641 -1.826834 -0.025138 12.008312 -12.664880 10.648079 -2.000000 2.000000 0.000000 61.718750 3.710938 8.633447 38.592278 1.818241 -0.045518 -16.868906 17.911728 14.840092 -37.647469 6.746688 -3.096144 41.512215 -3.020032 -7.431262 5.466030 -0.394569 3.780107 -30.612822 -7.557987 -5.698937 40.974831 2.929418 -7.279726 -6.952020 -0.194279 -14.698097 
38.220791 55.277115 23.685669 7.666015 0.136719 30.380859 20.556639 0.000000 0.000000 -15.029299 -2.246094 0.302734 -9.348134 -3.576195 -7.472546 -18.417969 -1.621094 -8.173868 2.000000 -2.000000 0.000000 -66.054688 16.259766 -0.573463 -33.396439 -1.836583 -0.024560 12.595279 -10.607182 8.342119 -2.000000 2.000000 0.000000 62.431637 3.779296 9.726562 38.221184 1.818241 -0.045518 -17.412798 17.785690 13.626122 -36.416512 7.898581 -2.831745 41.103939 -3.042777 -7.575169 5.155553 -0.446320 4.053420 -31.417702 -6.706715 -5.707828 44.042007 2.763599 -8.215611 -7.772748 -0.233364 -12.640743 
38.579819 54.329517 23.914701 6.611328 -0.244136 28.584414 20.556639 0.000000 0.000000 -14.570313 -1.142578 0.136719 -9.315578 -3.580052 -7.630541 -18.476564 -1.591797 -8.320313 2.000000 -2.000000 0.000000 -69.726563 17.412111 -1.276373 -35.916206 -1.837160 -0.034305 13.325829 -8.420346 5.294527 -2.000000 2.000000 0.000000 63.291019 4.609375 9.961721 36.863785 1.808492 -0.046095 -17.218102 18.550716 13.448715 -35.575153 9.413528 -2.305600 42.606125 -2.951836 -6.526261 3.550105 -0.548852 3.651374 -31.956369 -5.379435 -5.298311 46.359062 2.624967 -8.635357 -8.164880 -0.238220 -12.628572 
38.823196 53.340641 24.100571 6.113281 -0.976563 26.835772 20.556639 0.000000 0.000000 -14.677733 -0.107422 -0.000018 -9.311551 -3.599348 -7.825104 -18.613283 -2.246094 -8.183596 2.000000 -2.000000 0.000000 -71.855469 17.285156 -0.553738 -38.601967 -1.857235 -0.042893 14.649200 -6.742464 1.459503 -2.000000 2.000000 0.000000 63.945309 5.419922 9.609376 35.652596 1.807914 -0.036349 -16.987461 19.540922 13.829926 -35.455975 11.014601 -1.282505 44.196796 -2.873873 -6.562612 1.799529 -0.590383 3.939820 -32.747429 -3.778591 -4.269205 47.996323 2.528933 -9.781782 -7.960570 -0.269957 -11.937991 
39.336765 52.325844 24.370756 5.468750 -1.699219 26.748049 20.556639 0.000000 0.000000 -15.175782 1.376953 -0.205078 -9.267159 -3.879205 -8.574320 -17.695313 -2.441406 -8.886721 2.000000 -2.000000 0.000000 -72.597656 16.132813 2.070312 -41.453533 -1.857235 -0.042893 15.493417 -6.085724 -1.351600 -2.000000 2.000000 0.000000 63.300781 2.998047 8.935546 37.664547 1.818241 -0.045518 -17.820623 19.409994 12.952228 -35.653557 11.402708 -1.252066 46.414543 -2.760772 -6.338139 -0.346811 -0.573357 5.291122 -32.691422 -3.291006 -4.636996 49.557465 2.448174 -10.276407 -8.337852 -0.338141 -10.001955 
39.874870 51.394608 24.968388 2.851563 -1.103516 24.794735 20.556639 0.000000 0.000000 -13.671875 2.011719 -0.273437 -9.220040 -3.795707 -8.477547 -15.595704 -2.050781 -8.935548 2.000000 -2.000000 0.000000 -72.763672 15.419922 2.590489 -44.392982 -1.857235 -0.042894 15.373892 -6.624655 -1.150172 -2.000000 2.000000 0.000000 63.095703 2.441406 9.003906 38.094231 1.818241 -0.045518 -18.474422 19.779680 12.130312 -32.490856 12.750267 0.413922 48.610630 -2.630204 -6.421643 -3.097703 -0.438815 6.509780 -29.896425 -2.392114 -4.280256 51.018707 2.342208 -9.031605 -9.636781 -0.300796 -9.752438 
40.184818 50.696430 25.371588 0.800781 -0.498046 24.697233 20.556639 0.000000 0.000000 -12.138672 2.490235 -0.292969 -9.080383 -4.235960 -9.509636 -14.355470 -2.167969 -10.087893 2.000000 -2.000000 0.000000 -71.464844 12.373047 3.918110 -46.170551 -1.867561 -0.052060 13.569962 -8.290274 3.454353 -2.000000 2.000000 0.000000 63.056641 0.585938 6.806740 39.432121 1.818241 -0.045518 -18.239193 20.975376 13.279817 -29.986542 13.181952 1.133699 49.522251 -2.591674 -7.272871 -4.597895 -0.442669 7.743693 -27.186691 -2.070402 -4.440071 51.295528 2.348761 -9.096257 -9.457003 -0.293423 -7.308325 
40.402527 50.151779 25.547138 -0.039063 -1.005859 24.814453 20.556639 0.000000 0.000000 -11.894531 3.583984 -0.409546 -8.985116 -4.665046 -10.602137 -13.681642 -2.070312 -11.357422 2.000000 -2.000000 0.000000 -70.205078 8.232422 4.396037 -47.967426 -1.867561 -0.052060 13.056568 -10.455112 7.378353 -2.000000 2.000000 0.000000 62.832031 -1.220703 4.169922 41.160637 1.818241 -0.045518 -17.642286 21.542233 14.883924 -29.625904 13.904927 1.208752 50.543823 -2.540507 -7.787099 -5.546431 -0.542743 8.805927 -26.501772 -1.298946 -4.339612 51.605549 2.358070 -9.010695 -10.637137 -0.322939 -9.021194 
40.665035 49.932816 25.777811 -1.357422 -0.595703 24.863182 20.556639 0.000000 0.000000 -10.888672 4.150391 -0.439453 -8.801910 -5.249507 -11.949865 -12.343751 -2.500000 -12.705079 2.000000 -2.000000 0.000000 -68.466797 3.349610 4.013671 -49.149067 -1.867561 -0.052060 11.058235 -10.653504 13.421618 -2.000000 2.000000 0.000000 62.656250 -2.822266 0.820313 43.191891 1.818241 -0.045518 -17.799625 19.351746 15.775539 -27.792471 13.964723 1.588901 50.593700 -2.530608 -8.047173 -5.959508 -0.575829 9.600062 -24.517233 -1.337901 -4.775340 51.484158 2.367170 -7.704869 -11.640764 -0.283604 -9.968822 
